<svg xmlns="http://www.w3.org/2000/svg"  viewBox="0 0 24 24" width="192px" height="192px"><path d="M 8 3 C 5.2 3 3 5.2 3 8 L 3 16 C 3 18.8 5.2 21 8 21 L 16 21 C 18.8 21 21 18.8 21 16 L 21 8 C 21 5.2 18.8 3 16 3 L 8 3 z M 8 5 L 16 5 C 17.7 5 19 6.3 19 8 L 19 16 C 19 17.7 17.7 19 16 19 L 8 19 C 6.3 19 5 17.7 5 16 L 5 8 C 5 6.3 6.3 5 8 5 z M 17 6 C 16.4 6 16 6.4 16 7 C 16 7.6 16.4 8 17 8 C 17.6 8 18 7.6 18 7 C 18 6.4 17.6 6 17 6 z M 12 7 C 9.2 7 7 9.2 7 12 C 7 14.8 9.2 17 12 17 C 14.8 17 17 14.8 17 12 C 17 9.2 14.8 7 12 7 z M 12 9 C 13.7 9 15 10.3 15 12 C 15 13.7 13.7 15 12 15 C 10.3 15 9 13.7 9 12 C 9 10.3 10.3 9 12 9 z"/></svg>