<svg width="25" height="24" viewBox="0 0 25 24" fill="none" xmlns="http://www.w3.org/2000/svg">
<path d="M13.5694 4H15.0694M13.5694 4H12.0694M13.5694 4V5.5M13.5694 4V2.5" stroke="black" stroke-width="1.33102" stroke-linecap="round" stroke-linejoin="round"/>
<path d="M19.5694 11H21.0694M19.5694 11H18.0694M19.5694 11V12.5M19.5694 11V9.49997" stroke="black" stroke-width="1.33102" stroke-linecap="round" stroke-linejoin="round"/>
<path d="M19.5694 4H21.0694M19.5694 4H18.0694M19.5694 4V5.5M19.5694 4V2.5" stroke="black" stroke-width="1.33102" stroke-linecap="round" stroke-linejoin="round"/>
<path d="M7.56944 6C7.56944 12.08 12.4894 17 18.5694 17C19.0994 17 19.6194 16.96 20.1294 16.89C18.5194 19.36 15.7394 21 12.5694 21C7.59944 21 3.56944 16.97 3.56944 12C3.56944 8.83 5.20944 6.05 7.67944 4.44C7.60944 4.95 7.56944 5.47 7.56944 6Z" stroke="black" stroke-width="2.66204" stroke-linecap="round" stroke-linejoin="round"/>
</svg>
