<svg width="25" height="24" viewBox="0 0 25 24" fill="none" xmlns="http://www.w3.org/2000/svg">
<g clip-path="url(#clip0_4_109)">
<path d="M12.3889 21V22M21.3889 12H22.3889M12.3889 3V2M3.38889 12H2.38889" stroke="white" stroke-width="2.66204" stroke-linecap="round"/>
<path d="M18.8889 18.5L19.3889 19M18.8889 5.50002L19.3889 5.00002M5.88889 5.50002L5.38889 5.00002M5.88889 18.5L5.38889 19" stroke="white" stroke-width="2.66204" stroke-linecap="round"/>
<mask id="mask0_4_109" style="mask-type:alpha" maskUnits="userSpaceOnUse" x="0" y="-1" width="26" height="25">
<path d="M12.3889 24C19.0163 24 24.3889 18.6274 24.3889 12C24.3889 5.37258 19.0163 0 12.3889 0C5.76147 0 0.388885 5.37258 0.388885 12C0.388885 18.6274 5.76147 24 12.3889 24Z" fill="white"/>
<path d="M12.3889 16C14.598 16 16.3889 14.2091 16.3889 12C16.3889 9.79086 14.598 8 12.3889 8C10.1797 8 8.38889 9.79086 8.38889 12C8.38889 14.2091 10.1797 16 12.3889 16Z" fill="white"/>
<path d="M22.3889 5C24.0457 5 25.3889 3.65685 25.3889 2C25.3889 0.343146 24.0457 -1 22.3889 -1C20.732 -1 19.3889 0.343146 19.3889 2C19.3889 3.65685 20.732 5 22.3889 5Z" fill="white"/>
<path d="M22.3889 3C22.9412 3 23.3889 2.55228 23.3889 2C23.3889 1.44772 22.9412 1 22.3889 1C21.8366 1 21.3889 1.44772 21.3889 2C21.3889 2.55228 21.8366 3 22.3889 3Z" fill="white"/>
</mask>
<g mask="url(#mask0_4_109)">
<path d="M12.3889 18C15.7026 18 18.3889 15.3137 18.3889 12C18.3889 8.68631 15.7026 6.00002 12.3889 6.00002C9.07518 6.00002 6.38889 8.68631 6.38889 12C6.38889 15.3137 9.07518 18 12.3889 18Z" fill="white"/>
</g>
</g>
<defs>
<clipPath id="clip0_4_109">
<rect width="24" height="24" fill="white" transform="translate(0.388885)"/>
</clipPath>
</defs>
</svg>
